<?xml version="1.0" encoding="iso-8859-1"?>
<!-- Generator: Adobe Illustrator 19.0.0, SVG Export Plug-In . SVG Version: 6.00 Build 0)  -->
<svg version="1.1" id="Capa_1" xmlns="http://www.w3.org/2000/svg" xmlns:xlink="http://www.w3.org/1999/xlink" x="0px" y="0px"
	 viewBox="0 0 417.752 417.752" fill="#999" style="enable-background:new 0 0 417.752 417.752;" xml:space="preserve">
<g>
	<g>
		<path d="M415.243,202.968l-50.677-44.931c-2.293-2.007-5.495-2.607-8.359-1.567c-2.9,1.265-4.755,4.15-4.702,7.314v37.094H216.713
			V66.086h37.094c3.164,0.053,6.049-1.802,7.314-4.702c1.04-2.864,0.439-6.067-1.567-8.359L214.623,2.347
			c-3.224-3.052-8.27-3.052-11.494,0l-44.931,50.678c-2.007,2.293-2.607,5.495-1.567,8.359c1.265,2.9,4.15,4.755,7.314,4.702h37.094
			v134.792H66.248v-37.094c0.053-3.164-1.802-6.049-4.702-7.314c-2.864-1.04-6.067-0.439-8.359,1.567L2.509,202.968
			c-0.145,0.134-0.285,0.274-0.419,0.419c-2.943,3.174-2.755,8.132,0.419,11.075l50.678,44.931c1.357,1.419,3.263,2.181,5.224,2.09
			l3.135-0.522c2.9-1.265,4.755-4.151,4.702-7.314v-37.094h134.792v134.792h-37.094c-3.164-0.053-6.049,1.802-7.314,4.702
			c-1.04,2.864-0.439,6.067,1.567,8.359l44.931,50.677c1.501,1.588,3.564,2.526,5.747,2.612c2.183-0.086,4.246-1.024,5.747-2.612
			l44.931-50.677c2.007-2.293,2.607-5.495,1.567-8.359c-1.265-2.9-4.151-4.755-7.314-4.702h-37.094V216.551h134.792v37.616
			c-0.053,3.164,1.802,6.049,4.702,7.314h3.135c1.962,0.091,3.867-0.671,5.224-2.09l50.677-44.931
			c0.145-0.134,0.285-0.274,0.419-0.419C418.605,210.868,418.417,205.91,415.243,202.968z"/>
	</g>
</g>
<g>
</g>
<g>
</g>
<g>
</g>
<g>
</g>
<g>
</g>
<g>
</g>
<g>
</g>
<g>
</g>
<g>
</g>
<g>
</g>
<g>
</g>
<g>
</g>
<g>
</g>
<g>
</g>
<g>
</g>
</svg>
